<?xml version="1.0" encoding="utf-8" ?>
<!DOCTYPE svg PUBLIC "-//W3C//DTD SVG 1.1//EN" "http://www.w3.org/Graphics/SVG/1.1/DTD/svg11.dtd">
<svg height="892" version="1.1" width="1564" xmlns="http://www.w3.org/2000/svg">
<polygon fill="#ffffff" points="206,494 604,494 604,518 653,518 653,877 206,877 206,494" stroke="#ffffff" stroke-width="1"/>
<rect fill="none" height="24" stroke="#000000" stroke-width="1" width="398" x="206" y="494"/>
<text font-family="Dialog" font-size="12" x="211" y="508">
API</text>
<rect fill="none" height="359" stroke="#000000" stroke-width="1" width="447" x="206" y="518"/>
<polygon fill="#ffffff" points="46,494 135,494 135,518 184,518 184,593 46,593 46,494" stroke="#ffffff" stroke-width="1"/>
<rect fill="none" height="24" stroke="#000000" stroke-width="1" width="89" x="46" y="494"/>
<text font-family="Dialog" font-size="12" x="51" y="508">
IHM</text>
<rect fill="none" height="75" stroke="#000000" stroke-width="1" width="138" x="46" y="518"/>
<polygon fill="#ffffff" points="14,14 604,14 604,38 653,38 653,461 14,461 14,14" stroke="#ffffff" stroke-width="1"/>
<rect fill="none" height="24" stroke="#000000" stroke-width="1" width="590" x="14" y="14"/>
<text font-family="Dialog" font-size="12" x="19" y="28">
recognizer</text>
<rect fill="none" height="423" stroke="#000000" stroke-width="1" width="639" x="14" y="38"/>
<polygon fill="#ffffff" points="686,14 1500,14 1500,38 1549,38 1549,621 686,621 686,14" stroke="#ffffff" stroke-width="1"/>
<rect fill="none" height="24" stroke="#000000" stroke-width="1" width="814" x="686" y="14"/>
<text font-family="Dialog" font-size="12" x="691" y="28">
shared</text>
<rect fill="none" height="583" stroke="#000000" stroke-width="1" width="863" x="686" y="38"/>
<rect fill="#ffffff" height="68" stroke="#ffffff" stroke-width="1" width="137" x="46" y="334"/>
<rect fill="none" height="68" stroke="#000000" stroke-width="1" width="137" x="46" y="334"/>
<text font-family="Dialog" font-size="12" x="51" y="348">
+ recognizer::Shaper??</text>
<rect fill="#000000" height="1" stroke="#000000" stroke-width="1" width="137" x="46" y="358"/>
<rect fill="#000000" height="1" stroke="#000000" stroke-width="1" width="137" x="46" y="379"/>
<rect fill="#ffffff" height="161" stroke="#ffffff" stroke-width="1" width="310" x="46" y="46"/>
<rect fill="none" height="161" stroke="#000000" stroke-width="1" width="310" x="46" y="46"/>
<text font-family="Dialog" font-size="12" x="137" y="60">
+ recognizer::Shaper12</text>
<rect fill="#000000" height="1" stroke="#000000" stroke-width="1" width="310" x="46" y="70"/>
<text font-family="Dialog" font-size="12" x="50" y="85">
+shapeList : Message</text>
<text font-family="Dialog" font-size="12" x="50" y="102">
+catalogSimpleForm [1..*] : SimpleShapeTODO</text>
<rect fill="#000000" height="1" stroke="#000000" stroke-width="1" width="310" x="46" y="112"/>
<text font-family="Dialog" font-size="12" x="50" y="127">
+matcher( : SimpleShapeTODO) : Boolean {sequential}</text>
<text font-family="Dialog" font-size="12" x="50" y="144">
+leMatcheur() {sequential}</text>
<text font-family="Dialog" font-size="12" x="50" y="161">
+recevoir() {sequential}</text>
<text font-family="Dialog" font-size="12" x="50" y="178">
+envoyer() {sequential}</text>
<text font-family="Dialog" font-size="12" x="50" y="195">
&lt;&lt;create&gt;&gt; +Shaper12() {sequential}</text>
<rect fill="#ffffff" height="127" stroke="#ffffff" stroke-width="1" width="302" x="334" y="270"/>
<rect fill="none" height="127" stroke="#000000" stroke-width="1" width="302" x="334" y="270"/>
<text font-family="Dialog" font-size="12" x="421" y="284">
+ recognizer::Shaper23</text>
<rect fill="#000000" height="1" stroke="#000000" stroke-width="1" width="302" x="334" y="294"/>
<text font-family="Dialog" font-size="12" x="338" y="309">
+shapeList : Message</text>
<text font-family="Dialog" font-size="12" x="338" y="326">
+catalogComplexeForm [1..*] : ComplexeShapeTODO</text>
<rect fill="#000000" height="1" stroke="#000000" stroke-width="1" width="302" x="334" y="336"/>
<text font-family="Dialog" font-size="12" x="338" y="351">
+matcher( : Integer) : Boolean {sequential}</text>
<text font-family="Dialog" font-size="12" x="338" y="368">
+leMatcheur() {sequential}</text>
<text font-family="Dialog" font-size="12" x="338" y="385">
&lt;&lt;create&gt;&gt; +Shaper23() {sequential}</text>
<rect fill="#ffffff" height="93" stroke="#ffffff" stroke-width="1" width="222" x="1166" y="46"/>
<rect fill="none" height="93" stroke="#000000" stroke-width="1" width="222" x="1166" y="46"/>
<text font-family="Dialog" font-size="12" x="1231" y="60">
+ shared::Shape</text>
<rect fill="#000000" height="1" stroke="#000000" stroke-width="1" width="222" x="1166" y="70"/>
<text font-family="Dialog" font-size="12" x="1170" y="85">
+natureShape? : String</text>
<text font-family="Dialog" font-size="12" x="1170" y="102">
+ID? : Integer</text>
<rect fill="#000000" height="1" stroke="#000000" stroke-width="1" width="222" x="1166" y="112"/>
<text font-family="Dialog" font-size="12" x="1170" y="127">
&lt;&lt;create&gt;&gt; +FormeElem() {sequential}</text>
<rect fill="#ffffff" height="93" stroke="#ffffff" stroke-width="1" width="219" x="1294" y="174"/>
<rect fill="none" height="93" stroke="#000000" stroke-width="1" width="219" x="1294" y="174"/>
<text font-family="Dialog" font-size="12" x="1345" y="188">
+ shared::Elementary</text>
<rect fill="#000000" height="1" stroke="#000000" stroke-width="1" width="219" x="1294" y="198"/>
<text font-family="Dialog" font-size="12" x="1298" y="213">
+ID : Integer</text>
<text font-family="Dialog" font-size="12" x="1298" y="230">
+ends [0..1] : Point</text>
<rect fill="#000000" height="1" stroke="#000000" stroke-width="1" width="219" x="1294" y="240"/>
<text font-family="Dialog" font-size="12" x="1298" y="255">
&lt;&lt;create&gt;&gt; +Elementary() {sequential}</text>
<polyline fill="none" points="1326,174 1326,138" stroke="#000000" stroke-width="1"/>
<polygon fill="#ffffff" points="1326,138 1333,150 1319,150" stroke="#ffffff" stroke-width="1"/>
<polygon fill="none" points="1326,138 1333,150 1319,150" stroke="#000000" stroke-width="1"/>
<rect fill="#ffffff" height="76" stroke="#ffffff" stroke-width="1" width="179" x="1166" y="366"/>
<rect fill="none" height="76" stroke="#000000" stroke-width="1" width="179" x="1166" y="366"/>
<text font-family="Dialog" font-size="12" x="1203" y="380">
+ shared::Segment</text>
<rect fill="#000000" height="1" stroke="#000000" stroke-width="1" width="179" x="1166" y="390"/>
<text font-family="Dialog" font-size="12" x="1170" y="405">
+distance : Integer</text>
<rect fill="#000000" height="1" stroke="#000000" stroke-width="1" width="179" x="1166" y="415"/>
<text font-family="Dialog" font-size="12" x="1170" y="430">
&lt;&lt;create&gt;&gt; +Seg() {sequential}</text>
<polyline fill="none" points="1326,366 1326,266" stroke="#000000" stroke-width="1"/>
<polygon fill="#ffffff" points="1326,266 1333,278 1319,278" stroke="#ffffff" stroke-width="1"/>
<polygon fill="none" points="1326,266 1333,278 1319,278" stroke="#000000" stroke-width="1"/>
<rect fill="#ffffff" height="144" stroke="#ffffff" stroke-width="1" width="174" x="1358" y="302"/>
<rect fill="none" height="144" stroke="#000000" stroke-width="1" width="174" x="1358" y="302"/>
<text font-family="Dialog" font-size="12" x="1409" y="316">
+ shared::Arc</text>
<rect fill="#000000" height="1" stroke="#000000" stroke-width="1" width="174" x="1358" y="326"/>
<text font-family="Dialog" font-size="12" x="1362" y="341">
+smallRadus : Integer</text>
<text font-family="Dialog" font-size="12" x="1362" y="358">
+GigRadus : Integer</text>
<text font-family="Dialog" font-size="12" x="1362" y="375">
+Center : Point</text>
<text font-family="Dialog" font-size="12" x="1362" y="392">
+startAngle : Integer</text>
<text font-family="Dialog" font-size="12" x="1362" y="409">
+endAngle : Integer</text>
<rect fill="#000000" height="1" stroke="#000000" stroke-width="1" width="174" x="1358" y="419"/>
<text font-family="Dialog" font-size="12" x="1362" y="434">
&lt;&lt;create&gt;&gt; +Arc() {sequential}</text>
<polyline fill="none" points="1358,302 1358,266" stroke="#000000" stroke-width="1"/>
<polygon fill="#ffffff" points="1358,266 1365,278 1351,278" stroke="#ffffff" stroke-width="1"/>
<polygon fill="none" points="1358,266 1365,278 1351,278" stroke="#000000" stroke-width="1"/>
<rect fill="#ffffff" height="110" stroke="#ffffff" stroke-width="1" width="297" x="846" y="334"/>
<rect fill="none" height="110" stroke="#000000" stroke-width="1" width="297" x="846" y="334"/>
<text font-family="Dialog" font-size="12" x="904" y="348">
+ shared::ComplexeShapeTODO</text>
<rect fill="#000000" height="1" stroke="#000000" stroke-width="1" width="297" x="846" y="358"/>
<text font-family="Dialog" font-size="12" x="850" y="373">
+listeFormeSimpleBesoin [0..*] : SimpleShapeTODO</text>
<text font-family="Dialog" font-size="12" x="850" y="390">
+listeContrainteSimpleBesoin [0..*]</text>
<text font-family="Dialog" font-size="12" x="850" y="407">
+nom : String</text>
<rect fill="#000000" height="1" stroke="#000000" stroke-width="1" width="297" x="846" y="417"/>
<text font-family="Dialog" font-size="12" x="850" y="432">
&lt;&lt;create&gt;&gt; +FormeComplexe() {sequential}</text>
<polyline fill="none" points="1142,334 1166,138" stroke="#000000" stroke-width="1"/>
<polygon fill="#ffffff" points="1166,138 1171,150 1157,149" stroke="#ffffff" stroke-width="1"/>
<polygon fill="none" points="1166,138 1171,150 1157,149" stroke="#000000" stroke-width="1"/>
<rect fill="#ffffff" height="110" stroke="#ffffff" stroke-width="1" width="256" x="878" y="206"/>
<rect fill="none" height="110" stroke="#000000" stroke-width="1" width="256" x="878" y="206"/>
<text font-family="Dialog" font-size="12" x="924" y="220">
+ shared::SimpleShapeTODO</text>
<rect fill="#000000" height="1" stroke="#000000" stroke-width="1" width="256" x="878" y="230"/>
<text font-family="Dialog" font-size="12" x="882" y="245">
+listeFormeElemBesoin [1..*] : Shape</text>
<text font-family="Dialog" font-size="12" x="882" y="262">
+listeContrainteElemBesoin [1..*] : Constraint</text>
<text font-family="Dialog" font-size="12" x="882" y="279">
+nom : String</text>
<rect fill="#000000" height="1" stroke="#000000" stroke-width="1" width="256" x="878" y="289"/>
<text font-family="Dialog" font-size="12" x="882" y="304">
&lt;&lt;create&gt;&gt; +FormeSimple() {sequential}</text>
<polyline fill="none" points="1133,206 1166,138" stroke="#000000" stroke-width="1"/>
<polygon fill="#ffffff" points="1166,138 1167,151 1154,145" stroke="#ffffff" stroke-width="1"/>
<polygon fill="none" points="1166,138 1167,151 1154,145" stroke="#000000" stroke-width="1"/>
<rect fill="#ffffff" height="93" stroke="#ffffff" stroke-width="1" width="185" x="1358" y="494"/>
<rect fill="none" height="93" stroke="#000000" stroke-width="1" width="185" x="1358" y="494"/>
<text font-family="Dialog" font-size="12" x="1409" y="508">
+ shared::Point</text>
<rect fill="#000000" height="1" stroke="#000000" stroke-width="1" width="185" x="1358" y="518"/>
<text font-family="Dialog" font-size="12" x="1362" y="533">
+x : Integer</text>
<text font-family="Dialog" font-size="12" x="1362" y="550">
+y : Integer</text>
<rect fill="#000000" height="1" stroke="#000000" stroke-width="1" width="185" x="1358" y="560"/>
<text font-family="Dialog" font-size="12" x="1362" y="575">
&lt;&lt;create&gt;&gt; +Point() {sequential}</text>
<rect fill="#ffffff" height="127" stroke="#ffffff" stroke-width="1" width="388" x="718" y="46"/>
<rect fill="none" height="127" stroke="#000000" stroke-width="1" width="388" x="718" y="46"/>
<text font-family="Dialog" font-size="12" x="859" y="60">
+ shared::Message</text>
<rect fill="#000000" height="1" stroke="#000000" stroke-width="1" width="388" x="718" y="70"/>
<text font-family="Dialog" font-size="12" x="722" y="85">
+shapes [0..*] : Shape</text>
<text font-family="Dialog" font-size="12" x="722" y="102">
+constraints [0..*] : Constraint</text>
<rect fill="#000000" height="1" stroke="#000000" stroke-width="1" width="388" x="718" y="112"/>
<text font-family="Dialog" font-size="12" x="722" y="127">
+add(toConcatenate : Message) {sequential}</text>
<text font-family="Dialog" font-size="12" x="722" y="144">
&lt;&lt;create&gt;&gt; +ShapeList() {sequential}</text>
<text font-family="Dialog" font-size="12" x="722" y="161">
+selectConstraint(theConstraint : Constraint) : Constraint {sequential}</text>
<rect fill="#ffffff" height="110" stroke="#ffffff" stroke-width="1" width="243" x="1070" y="462"/>
<rect fill="none" height="110" stroke="#000000" stroke-width="1" width="243" x="1070" y="462"/>
<text font-family="Dialog" font-size="12" x="1135" y="476">
+ shared::Constraint</text>
<rect fill="#000000" height="1" stroke="#000000" stroke-width="1" width="243" x="1070" y="486"/>
<text font-family="Dialog" font-size="12" x="1074" y="501">
+shapes [1..*] : Shape</text>
<text font-family="Dialog" font-size="12" x="1074" y="518">
+type : ConstraintType</text>
<text font-family="Dialog" font-size="12" x="1074" y="535">
+value : Integer</text>
<rect fill="#000000" height="1" stroke="#000000" stroke-width="1" width="243" x="1070" y="545"/>
<text font-family="Dialog" font-size="12" x="1074" y="560">
&lt;&lt;create&gt;&gt; +ContrainteElem() {sequential}</text>
<rect fill="#ffffff" height="125" stroke="#ffffff" stroke-width="1" width="138" x="878" y="462"/>
<rect fill="none" height="125" stroke="#000000" stroke-width="1" width="138" x="878" y="462"/>
<text font-family="Dialog" font-size="12" x="883" y="496">
shared::ConstraintType</text>
<text font-family="Dialog" font-size="12" x="898" y="477">
&lt;&lt;enumeration&gt;&gt;</text>
<rect fill="#000000" height="1" stroke="#000000" stroke-width="1" width="138" x="878" y="506"/>
<text font-family="Dialog" font-size="12" x="882" y="521">
Jointure</text>
<text font-family="Dialog" font-size="12" x="882" y="538">
Colinéarité</text>
<text font-family="Dialog" font-size="12" x="882" y="555">
Coaxialité</text>
<rect fill="#000000" height="1" stroke="#000000" stroke-width="1" width="138" x="878" y="565"/>
<rect fill="#ffffff" height="127" stroke="#ffffff" stroke-width="1" width="316" x="238" y="526"/>
<rect fill="none" height="127" stroke="#000000" stroke-width="1" width="316" x="238" y="526"/>
<text font-family="Dialog" font-size="12" x="336" y="540">
+ API::APICatalogueur</text>
<rect fill="#000000" height="1" stroke="#000000" stroke-width="1" width="316" x="238" y="550"/>
<text font-family="Dialog" font-size="12" x="242" y="565">
+catalogSimpleForm [1..*] : SimpleShapeTODO</text>
<text font-family="Dialog" font-size="12" x="242" y="582">
+catalogueComplexeForm [1..*] : ComplexeShapeTODO</text>
<rect fill="#000000" height="1" stroke="#000000" stroke-width="1" width="316" x="238" y="592"/>
<text font-family="Dialog" font-size="12" x="242" y="607">
+miseAJourFS(fichierTexteFS : String) {sequential}</text>
<text font-family="Dialog" font-size="12" x="242" y="624">
+miseAJourFC(fichierTexteFC : String) {sequential}</text>
<text font-family="Dialog" font-size="12" x="242" y="641">
&lt;&lt;create&gt;&gt; +APICatalogueur() {sequential}</text>
<rect fill="#ffffff" height="178" stroke="#ffffff" stroke-width="1" width="217" x="238" y="686"/>
<rect fill="none" height="178" stroke="#000000" stroke-width="1" width="217" x="238" y="686"/>
<text font-family="Dialog" font-size="12" x="315" y="700">
+ API::APItri</text>
<rect fill="#000000" height="1" stroke="#000000" stroke-width="1" width="217" x="238" y="710"/>
<text font-family="Dialog" font-size="12" x="242" y="725">
-listeFormesElem [0..*] : Elementary</text>
<text font-family="Dialog" font-size="12" x="242" y="742">
+listeContrainteElem [0..*] : Constraint</text>
<text font-family="Dialog" font-size="12" x="242" y="759">
+shapeList : Message</text>
<rect fill="#000000" height="1" stroke="#000000" stroke-width="1" width="217" x="238" y="769"/>
<text font-family="Dialog" font-size="12" x="242" y="784">
+gatherSegment() {sequential}</text>
<text font-family="Dialog" font-size="12" x="242" y="801">
+gatherCercle() {sequential}</text>
<text font-family="Dialog" font-size="12" x="242" y="818">
+recevoir() {sequential}</text>
<text font-family="Dialog" font-size="12" x="242" y="835">
+envoyer() {sequential}</text>
<text font-family="Dialog" font-size="12" x="242" y="852">
&lt;&lt;create&gt;&gt; +Api0() {sequential}</text>
</svg>
